<svg class="reGlobalLogo__svg" version="1.1" xmlns="http://www.w3.org/2000/svg" xmlns:xlink="http://www.w3.org/1999/xlink" x="0px" y="0px" viewBox="0 0 320 37" style="enable-background:new 0 0 320 37;" xml:space="preserve">
            <title>OIC｜専門学校 岡山情報ビジネス学院｜岡山県認可の総合専門学校</title>
             <desc>専門学校 岡山情報ビジネス学院（OIC）はＪＲ岡山駅から徒歩２分、高い資格取得実績と就職実績を誇る総合専門学校です。文科省職業実践専門課程認定。ホテル・ブライダル・医療事務・診療情報管理士・経営・公務員・保育・ＩＴ・情報処理・ゲーム・Web・デザインなど</desc>
            <path d="M195.6,18.7h-2v-3.8h2V18.7z M198.3,14.9h-2v3.8h2V14.9z M95,24.7v-2.4h-2l1.2-3.6h-2.6l-1.1,3.6h-3.2
                c-0.1-1.2-0.5-2.7-1.1-3.6h-2.5c0.5,0.9,1,2.3,1.1,3.6h-1.9v2.4h4.9v6.5h-2.4v-5h-2.2v7.2h11.5v-7.2h-2.2v5H90v-6.5H95z M96,36.2
                c1.8,0,3-1.3,3-3V15.1H78.7v21.1h2.6V17.5h15.1v15.3c0,0.4-0.4,0.8-0.8,0.8h-1.9v2.6H96 M123.6,35.9V16.5h-2.9v16.7h-5.8V14.7H112
                v18.5h-5.7V16.5h-3v19.4H123.6z M145.6,31.2h-7.3v-1.1h7.3V31.2z M145.6,28.3h-7.3v-1.2h7.3V28.3z M145.9,36.2
                c1.2,0,2.3-0.5,2.3-2.2v-8.6h-12.4v10.8h2.6v-3.1h7.3v0.8c0,0.3-0.2,0.5-0.5,0.5h-2.6v1.9H145.9 M135.4,24.1h13.4v-1.9h-5.5V21h4.9
                v-1.9h-4.9v-1.2h5.5v-2h-5.5v-1.2h-2.7v1.2h-5.4v2h5.4v1.2h-4.8V21h4.8v1.2h-5.4l-0.3-3.4h-1.9l0.5,7.5h1.9L135.4,24.1 M130.2,36.2
                h2.5V14.7h-2.5V36.2z M129.3,27.4c0.4-1.1,0.5-3.2,0.5-8.6h-2.2c0,5-0.1,7.4-0.6,8.6H129.3 M169.9,34.3c1.1,1,2.4,1.6,3.8,1.9v-2.8
                c-0.8-0.2-1.6-0.5-2.3-1c1.1-1.7,1.8-3.8,1.8-6.2v-2.6H166v-5.8h4.8v1.1c0,0.4-0.3,0.7-0.7,0.7h-2.4v2.4h2.9c1.7,0,2.7-0.8,2.7-2.5
                v-4.3h-9.9v21.1h2.6v-10h5.1c-0.2,1.8-0.6,3.2-1.2,4.3c-0.6-0.9-0.9-2-1.1-3.4h-2.4c0.2,1.9,0.8,3.8,1.9,5.3c-0.5,0.5-1.1,0.8-1.7,1
                v2.8C167.9,35.8,169,35.2,169.9,34.3 M155.6,23.3h3.8l-0.7,2.9h-2.4C156.1,25.3,155.9,24.2,155.6,23.3 M159,28.7h3.8v-2.5h-1.6
                l0.7-2.9h0.9v-2.5H159v-2.2h3.1v-2.5H159v-1.5h-2.8v1.5h-3.3v2.5h3.3v2.2h-3.9v2.5h0.8c0.3,1,0.5,2,0.7,2.9h-1.5v2.5h3.9v2.2h-3.3
                v2.5h3.3v2.9h2.8v-2.9h3.1v-2.5H159V28.7 M196.8,22.7v-3h-15.7v-4h-2.9v12.8c0,5.1,2.4,7.6,8.5,7.6h10.6v-2.9h-9.7
                c-4.8,0-6.4-1.4-6.4-4.9v-5.6H196.8z M220.6,18.8h1.6V15h-1.6V18.8z M217.8,18.8h1.6V15h-1.6V18.8z M202,25.5h9.9v-2.7H202V25.5z
                 M202,19h9.9v-2.7H202V19z M207.9,36.1c11.2,0,13.4-6.7,13.4-14.5v-1.8h-3v1.5c0,6.9-1.9,11.9-10.4,11.9h-6.3v3H207.9 M245.7,32.8
                v-3.2l-6.1-2.7c2.7-2.1,4.7-4.5,5.5-6.7v-2.5h-7.9v-2.4h-3v2.4h-8v3h15.3c-1.7,3.6-8.2,7.8-15.9,9.1v3.1c3.2-0.5,6.2-1.5,8.8-2.8
                v6.1h3v-7.3L245.7,32.8z M295,30.4v-2.6h-9v-0.6c2-0.6,4.5-2,5.3-3v-2.4h-14.1v2.6h10.1c-1.3,0.9-2.8,1.6-4.2,1.8v1.5h-9.5v2.6h9.5
                v2.3c0,0.4-0.4,0.8-0.8,0.8h-3.7v2.7h4.7c1.7,0,2.7-1.1,2.7-2.8v-3H295z M292.3,22.7h2.7v-5.2h-2.7l1-2.8h-3l-1.1,2.8h-3.8
                c-0.1-0.9-0.5-2.1-0.9-2.8h-2.8c0.4,0.7,0.7,1.9,0.9,2.8H279c-0.2-1-0.5-2.1-0.9-2.8h-2.8c0.4,0.7,0.7,1.9,0.9,2.8h-2.7v5.2h2.7
                v-2.6h16.1V22.7 M317.4,20.9h-8.3v-2.4h8.3V20.9z M318.1,20.9h1.9v-5h-5.3v-1.3h-3V16h-5.2v5h2v2.5h9.7V20.9 M318.2,35.9
                c0.8,0,1.4-0.1,1.8-0.4v-2.7c-0.4,0.4-1,0.5-1.7,0.5h-1.1c-0.4,0-0.7-0.3-0.7-0.6v-4.1h3.2V26h-13v2.5h2.8c-0.2,3-1.3,4.4-3.3,4.8
                v2.8c3.9-0.7,5.5-3.4,5.8-7.7h2v4.8c0,1.5,1,2.5,2.5,2.5H318.2 M303.8,27.8V29c0,1.2-0.4,1.9-1.6,1.9h-0.9V17.6h2.3l-1,6
                C303.4,24.7,303.8,26.1,303.8,27.8 M302.5,33.7c2,0,3.6-1.3,3.6-4v-1.8c0-2-0.4-3.3-1.4-4.4l1.1-5.8v-2.5H299v21.1h2.2v-2.5H302.5
                 M61.3,19.9h-2.7v-0.7h2.7V19.9z M61.3,18.3h-2.7v-0.7h2.7V18.3z M57.3,19.9h-2.7v-0.7h2.7V19.9z M57.3,18.3h-2.7v-0.7h2.7V18.3z
                 M61.8,22.5h1.1v-1h-1.1v-0.6h0.8v-4h-4v-0.6h4.3v-1h-4.3v-0.5h-1.3v0.5H53v1h4.3v0.6h-4v4h7.2v0.6H53v1h1.2l0.5,1.9H56l-0.5-1.9h5
                V23c0,0.4-0.2,0.6-0.5,0.6h-2.6v1h3.1c0.9,0,1.3-0.5,1.3-1.3V22.5 M72.5,18h-1.8v-0.7h1.8V18z M72.5,16.4h-1.8v-0.7h1.8V16.4z
                 M72.5,24.5c0.8,0,1.2-0.5,1.2-1.2v-8.5h-4.2v4.1h2.9V23c0,0.2-0.2,0.3-0.3,0.3H71v1.2H72.5 M67.4,18h-1.8v-0.7h1.8V18z M67.4,16.4
                h-1.8v-0.7h1.8V16.4z M65.6,18.9h3v-4.1h-4.2v9.8h1.2V18.9 M62.9,33.5v-1.2h-4.1v-0.3c0.9-0.3,2.1-0.9,2.4-1.4v-1.1h-6.5v1.2h4.6
                c-0.6,0.4-1.3,0.7-1.9,0.8v0.7H53v1.2h4.4v1c0,0.2-0.2,0.4-0.4,0.4h-1.7v1.2h2.2c0.8,0,1.3-0.5,1.3-1.3v-1.4H62.9z M61.7,30h1.2
                v-2.4h-1.2l0.5-1.3h-1.4l-0.5,1.3h-1.7c-0.1-0.4-0.2-1-0.4-1.3h-1.3c0.2,0.3,0.3,0.9,0.4,1.3h-1.7c-0.1-0.4-0.2-1-0.4-1.3h-1.3
                c0.2,0.3,0.3,0.9,0.4,1.3H53V30h1.2v-1.2h7.4V30 M73.7,28.1v-1.2h-2.4v-0.6H70v0.6h-2.3v1.2H73.7z M72.9,31.2h0.8l-1-2.7h-1.3
                l0.9,2.3h-0.6c-0.2,0.8-0.5,1.6-1.1,2.2c-0.5-0.6-0.9-1.4-1.1-2.2H69c0.5-0.7,0.9-1.5,1-2.3h-1.3c-0.1,0.7-0.5,1.6-1,1.9v1.5
                c0.3-0.2,0.5-0.3,0.8-0.5c0.3,0.9,0.7,1.8,1.3,2.5c-0.6,0.5-1.4,0.8-2.2,1v1.3c1.2-0.3,2.2-0.8,3-1.4c0.8,0.7,1.9,1.2,3,1.4v-1.3
                c-0.8-0.2-1.6-0.5-2.2-1C72.2,33.1,72.7,32.2,72.9,31.2 M66.3,28.6h1.2v-1.2h-1.2v-1.1h-1.2v1.1h-1.3v1.2h1.3v0.5
                c0,1.3-0.8,2.7-1.3,3.3v1.8c0.4-0.4,0.9-1.1,1.3-1.8v3.9h1.2V31l1.1,1.5v-1.7l-1.1-1.3V28.6 M250.4,16.2v3h14.5v0.5
                c-0.2,8-7.1,12.5-15.2,13.2v3c5.3-0.4,10-2.1,13.3-5.1l6.8,5.5v-3.8l-4.8-3.9c1.9-2.6,3-5.9,3-9.9v-2.3H250.4z M62.2,3.9v1.7h1.1
                V2.9h-1.7c0.3-0.4,0.7-0.9,0.9-1.2c0.2,0,0.2,0,0.3-0.1c-0.1,0-0.1-0.1-1.3-0.5c-0.3,0.6-0.8,1.3-1.2,1.8h-1.8L59,2.7
                c-0.1-0.5-0.6-1.2-1-1.8l-1,0.4c0.3,0.5,0.6,1.1,0.8,1.6h-2l0.3-0.1C56,2.3,55.5,1.6,55,1.1l-0.9,0.4c0.3,0.4,0.7,0.9,0.9,1.3h-1.7
                v2.7h1V3.9H62.2z M63.5,7.7h-4.6V7.5c1-0.5,2-1.3,2.6-2c0.1,0,0.2-0.1,0.2-0.1l-0.8-0.5l-0.2,0h-5.5v1h4.4c-0.4,0.3-0.8,0.6-1.2,0.9
                l-0.6,0v0.9h-4.6v1h4.6v1.8c0,0.2-0.1,0.2-0.8,0.2c-0.4,0-0.9,0-1.4,0c0.2,0.3,0.4,0.7,0.5,1.1c2.2,0,2.8-0.1,2.8-1.2V8.7h4.6V7.7
                 M72.4,2.6V1.2c0.2,0,0.3-0.1,0.3-0.2L71.3,1v1.7h-2.6v1h6.5v-1H72.4z M71.3,4.4l-1.1-0.5c-0.4,0.8-1.1,1.8-1.8,2.4
                c0.2,0.2,0.6,0.5,0.7,0.7c0.8-0.7,1.5-1.7,1.9-2.5C71.1,4.5,71.2,4.4,71.3,4.4 M73.4,3.9l-0.8,0.5c0.5,0.6,1.1,1.3,1.5,1.9L72.8,6
                c-0.2,0.8-0.5,1.5-1,2.2c-0.5-0.6-0.8-1.3-1.1-2.1l-0.9,0.3c0.4,1,0.8,1.9,1.4,2.7c-0.7,0.8-1.7,1.5-3,1.9c0.2,0.2,0.5,0.6,0.6,0.9
                c1.3-0.5,2.3-1.2,3.1-2c0.8,0.9,1.7,1.5,2.8,2c0.2-0.3,0.5-0.7,0.8-1c-1.1-0.4-2-1-2.8-1.8c0.6-0.8,1-1.7,1.3-2.6
                c0.1,0,0.2,0,0.3-0.1c0.1,0.2,0.2,0.4,0.3,0.6l0.9-0.5C74.9,5.6,74.1,4.6,73.4,3.9 M67.2,5.2V4.4h1.4v-1h-1.4V1.2
                c0.2,0,0.3-0.1,0.3-0.2L66.2,1v2.5h-1.6v1h1.5c-0.4,1.5-1,3.3-1.8,4.2c0.2,0.3,0.4,0.7,0.5,1c0.5-0.7,1-1.8,1.3-2.9v5h1V6.5
                c0.3,0.6,0.7,1.3,0.9,1.7l0.6-0.8C68.5,7,67.5,5.6,67.2,5.2 M83.4,5.8v-2h2.7v-1h-2.7V1.3c0.2,0,0.3-0.1,0.3-0.3L82.3,1v1.8h-2.6v1
                h2.6v2h-3.2v1h2.2C81,7.9,80.5,9.2,80,10.1l-0.9,0l0.4,1.3c0.1,0,0.2-0.1,0.2-0.2c1.3-0.1,3.4-0.2,5.5-0.4c0.2,0.3,0.3,0.7,0.5,0.9
                l1-0.6c-0.4-0.9-1.4-2.3-2.2-3.3l-0.9,0.5c0.4,0.5,0.8,1,1.1,1.5l-3.4,0.2c0.5-0.9,1-2.1,1.3-3c0.1,0,0.3-0.1,0.3-0.2l-0.5-0.2h4.4
                v-1H83.4z M77.1,1l-0.6,0.8c0.8,0.3,1.8,0.9,2.2,1.3l0.6-0.9C78.9,1.8,77.9,1.3,77.1,1 M76.3,10.9l1.1,0.8c0,0,0.1-0.1,0.1-0.2
                c0-0.1,0-0.1-0.1-0.2c0.6-0.9,1.3-2.2,1.8-3.5c0,0-0.1-0.1-0.8-0.7C77.7,8.5,76.9,10,76.3,10.9 M76.5,4.2L75.9,5
                c0.8,0.3,1.8,0.8,2.3,1.2l0.6-0.9C78.3,4.9,77.3,4.5,76.5,4.2 M92.1,1.3c-0.1,1.5,0,7-4.7,9.5c0.4,0.3,0.7,0.6,0.9,0.9
                c2.7-1.6,4-4.1,4.5-6.3c0.6,2.3,2,5,4.8,6.3c0.2-0.3,0.5-0.7,0.8-0.9c-4.3-2-5-7-5.1-8.7l0-0.4c0.2,0,0.3-0.1,0.3-0.2L92.1,1.3z
                 M112.3,7h7.1V5.9h-7.1V7z M111.5,3.2h8.8V2.1h-8.8V3.2z M110.8,11H121V9.9h-10.1V11z M129.8,6.3c-0.4,0.9-0.9,1.7-1.6,2.4
                c-0.8-0.7-1.3-1.4-1.8-2.4H129.8z M130.6,5.2l-0.2,0h-4.2c0.1-0.5,0.2-0.9,0.3-1.4h6.2V2.8h-6c0-0.5,0.1-1,0.1-1.6
                c0.2,0,0.3-0.1,0.3-0.2l-1.4,0c0,0.6,0,1.2-0.1,1.8h-3.1v1.1h3c-0.4,2.5-1.3,5-3.3,6.7c0.3,0.2,0.7,0.6,0.9,0.8
                c1.3-1.2,2.2-2.7,2.8-4.3c0.5,0.9,1,1.7,1.7,2.3c-0.9,0.7-1.9,1.1-3.1,1.4c0.2,0.2,0.5,0.7,0.6,1c1.2-0.4,2.4-0.9,3.3-1.6
                c1.1,0.8,2.3,1.3,3.9,1.6c0.2-0.3,0.5-0.8,0.7-1.1c-1.5-0.3-2.7-0.7-3.7-1.3c0.9-0.9,1.6-2.1,2.1-3.7c0.1,0,0.1-0.1,0.1-0.2
                L130.6,5.2 M142.9,3.9v1.7h1.1V2.9h-1.7c0.3-0.4,0.7-0.9,0.9-1.2c0.2,0,0.2,0,0.3-0.1c-0.1,0-0.1-0.1-1.3-0.5
                c-0.3,0.6-0.8,1.3-1.2,1.8h-1.8l0.4-0.2c-0.2-0.5-0.6-1.2-1-1.8l-1,0.4c0.3,0.5,0.6,1.1,0.8,1.6h-2l0.3-0.1
                c-0.2-0.5-0.7-1.1-1.1-1.6l-0.9,0.4c0.3,0.4,0.7,0.9,0.9,1.3h-1.7v2.7h1V3.9H142.9z M144.2,7.7h-4.6V7.5c1-0.5,2-1.3,2.6-2
                c0.1,0,0.2-0.1,0.2-0.1l-0.8-0.5l-0.2,0h-5.5v1h4.4c-0.4,0.3-0.8,0.6-1.2,0.9l-0.6,0v0.9h-4.6v1h4.6v1.8c0,0.2-0.1,0.2-0.8,0.2
                c-0.4,0-0.9,0-1.4,0c0.2,0.3,0.4,0.7,0.5,1.1c2.2,0,2.8-0.1,2.8-1.2V8.7h4.6V7.7 M152.8,7.5c-0.3,0.2-0.7,0.5-1,0.7
                c-0.3-0.2-0.6-0.4-0.8-0.7l0,0H152.8z M148.9,6.2h3.1V7h-3.1V6.2z M153.8,4.5h-2.9V3.9h2.2V3.3h-2.2V2.9c0.2,0,0.3-0.1,0.3-0.2
                L150,2.6v0.6h-2.2v0.6h2.2v0.6h-2.8v0.7h6.7V4.5 M153.1,7.3l-0.2,0.2V5.6h-5v1.9h1.9c-0.8,0.6-1.9,1.2-2.9,1.5
                c0.2,0.2,0.4,0.5,0.6,0.7c0.8-0.3,1.6-0.7,2.4-1.1V10h1V8.4c0.7,0.7,1.7,1.3,2.7,1.6c0.1-0.2,0.4-0.5,0.6-0.7
                c-0.6-0.1-1.1-0.4-1.6-0.6c0.4-0.2,0.9-0.5,1.2-0.8c0.1,0,0.2,0,0.3-0.1L153.1,7.3 M146.6,2.4h7.7v7.9h-7.7V2.4z M145.6,1.5v10.3h1
                v-0.5h7.7v0.5h1.1V1.5H145.6 M47.1,0.3L47.1,0.3l0.2,0l0,0h0.1l0,0c0,0,0,0,0,0c0,0,0.1,0,0.1,0c0,0,0.1,0,0.1,0c0,0,0,0,0,0l0,0
                h0.1l0,0h0l0.1,0.1l0.1,0.1c0,0-0.1,0.3-0.1,0.4l0,0v0.5l0,0.1l0,0l0,0.1c0,0.1,0,0.3,0,0.4l0,0v0.1l0,0.1l0,0c0,0.1,0.1,0.5,0,0.6
                l-0.1,0.1l0.1,0.2l0,0v0.5l0,0.1l0,0v0.2l0,0.1l0,0l0,0.2c0,0.1-0.1,0.4,0,0.5l0,0l0,0.1l0,0.2l0,0.1l-0.1,0.1h0v0.1l0,0v0.2l0,0
                l0,0.3l0,0v0.3c0,0,0.1,0.2,0,0.2l0,0.1v0.2c0,0.1,0,0.2,0,0.3v0.2l0,0.2l0,0v0.3l-0.1,0.1l0.1,0.3c0,0.1,0,0.3,0,0.4
                c0,0.1,0,0.3,0,0.4c0,0.2,0,0.3,0,0.5v0.3l-0.1,0v0.4l0.1,0.1v0.1l0,0v0.5l0,0v0.3l0,0l0,0.1c0,0.1,0.1,0.2,0.1,0.3l0,0.1v0.2l0,0
                V12l0,0v0.2l0,0.1l0,0.1l0,0.1l0,0.1l0,0.1l0,0.2l0,0.2c0,0.1,0,0.3,0,0.4l0,0.2l0,0v0.1l-0.1,0l0,0.1l0,0.1l0.1,0.2
                c0,0.1,0,0.3,0,0.4c0,0.1,0,0.2,0,0.2v0.3l0,0c0,0.1,0,0.2,0,0.3V16l0,0v0.1l0,0.1l0,0l0,0.1l-0.1,0.1l0,0.1l-0.1,0.1l0.1,0l0,0.2
                l0,0l0,0l0,0.1v0.4c0,0-0.1,0.1-0.1,0.2l0.1,0v1.1l0,0l0,0.1l0,0l0,0l0,0l0,0.2c0,0.1,0,0.2,0,0.3c0,0.1-0.1,0.2,0,0.3
                c0,0.1,0,0.4,0,0.6l0,0.2l0,0v0.2l0,0v0.4l0,0c0,0.1,0,0.3,0,0.4l0,0.1V22l0,0.1c0,0.1,0.1,0.2,0,0.3l0,0l0,0.1l-0.1,0
                c0,0.1,0.1,0.1,0,0.2c0,0.1,0,0.3,0,0.4c0,0.2,0,0.3,0.1,0.4l0,0.6l0,0.1l0,0.2l0,0v0.2l0,0.1l0,0.1l-0.1,0.2c0.2,0.1,0,0.2,0.1,0.3
                l0,0.1l0,0.1v0.1l0,0v0.5l0,0v0.4l0,0.1l0,0.5l0,0v0.2l0,0l0,0.1l0,0l0,0v0.6l0,0.2v0.3l0,0V29l0,0.1l0,0.1v0.3l0,0
                c0,0.1,0.1,0.1,0,0.2l-0.1,0v0.1l0,0v0l0.1,0l0,0.5l0,0.1l0,0.1l0.1,0v0.4l0,0c0,0.1,0,0.4,0,0.5c0,0.1,0,0.2,0,0.3
                c0,0.1,0,0.3,0,0.4l0,0.2l0,0.2l0,0v0.1l0,0.1l0,0.1l0,0.1l-0.1,0.3l0,0.3l0,0v0.1l0,0.1l0,0.1l0,0.4l0,0.1c0,0.1,0,0.2,0,0.3
                c0,0.2,0,0.5,0,0.7v0.3l0,0l0,0.1l0,0.1l0,0.1l0,0.1l0,0.1v0.4l-0.1,0.1L48,36.6h-0.2l-0.2,0l0,0l-0.1,0h-0.1l-0.1,0l-0.2,0l0,0.1
                c-0.1,0-0.2,0-0.2,0l0,0l-0.6,0l-0.1,0l-0.1,0l-0.1,0l-0.1,0l-0.1,0l-0.1,0l0,0l-0.1,0c0,0-0.1,0-0.1,0c0,0,0,0-0.1,0h-0.8l0,0
                l-0.1,0l-0.1,0l0,0H44l-0.1,0l0,0l-0.2,0h-0.4l-0.1,0c-0.1,0-0.2-0.1-0.3-0.1c0,0-0.1,0-0.1,0l-0.1,0l0,0h-0.1l0,0h-0.2
                c0,0-0.1,0.1-0.2,0.1c0,0,0,0-0.1,0l-0.1,0h-0.2l-0.1-0.1l-0.1,0l-0.2,0l0,0l-0.1,0l0,0h-0.6l-0.1,0l-0.1,0h-0.2l0,0l-0.1,0l0,0
                l-0.3,0l0,0l-0.2,0c0,0-0.1,0-0.1,0c-0.1,0-0.2,0-0.3,0l-0.1,0c-0.1,0-0.2,0-0.2,0l-0.1,0l0,0l-0.1,0h-0.4l0,0H38l0,0h-0.1h-0.1
                c0,0,0,0-0.1,0c0,0,0,0-0.1,0l0,0l-0.1,0l0,0l-0.1,0l-0.1,0l0,0c0,0,0,0-0.1,0h-0.1c0,0,0,0-0.1,0c0,0,0,0-0.1,0l-0.2,0
                c0,0-0.2,0-0.3,0c0,0-0.1,0-0.1,0l0,0h-0.2l-0.1,0l-0.1,0c-0.1,0-0.1,0-0.2,0c0,0-0.1,0-0.1,0h-0.1l-0.1-0.1l-0.2,0h-0.2l0,0H35
                c-0.2,0-0.3,0-0.4,0h-0.3l0,0c0,0,0,0-0.1,0c-0.1,0-0.3,0-0.3,0.1c-0.1,0-0.3,0-0.4-0.1c0,0-0.1,0-0.2,0c0,0-0.1,0-0.1,0l-0.1,0
                c-0.1,0-0.2,0-0.4,0h-0.1c-0.1,0-0.1,0-0.2,0c0,0,0,0,0,0l-0.2,0l-0.2,0.1l-0.1,0l0,0h-0.2l0,0l0,0l-0.1,0l-0.1,0l-0.1,0l0,0l-0.1,0
                l-0.1,0l-0.2,0l-0.1,0l-0.2,0l-0.2,0c-0.1,0-0.3,0-0.4-0.1l-0.1,0h-0.3c-0.1,0-0.2,0.1-0.3,0.1c0,0-0.1,0-0.1,0
                c-0.1,0-0.3-0.1-0.5-0.1c0,0,0,0-0.1,0l-0.1,0.1h0c0,0,0,0,0,0c0,0,0,0-0.1,0h0l0,0c0,0,0,0-0.1,0c-0.1,0-0.2,0-0.2,0L28,36.7
                c-0.2-0.1-0.5,0-0.7-0.1l0,0c-0.2,0-0.3,0-0.5,0c-0.2,0-0.3,0-0.4,0l-0.1,0H26l-0.1-0.1c0,0-0.1,0-0.1,0c0,0,0,0-0.1,0
                c0,0-0.1,0-0.1,0c0,0,0,0,0,0l-0.1,0l0,0l-0.1,0c0-0.1-0.1-0.1-0.1-0.1l-0.1,0l-0.1,0H25l-0.1,0c0,0-0.1,0-0.1,0c-0.1,0-0.3,0-0.3,0
                l0,0h-0.2h-0.2c-0.1,0-0.3,0-0.4,0h-0.2l0,0l-0.2,0l-0.2,0l0,0H23l0,0h-0.3c-0.3,0-0.7,0-1,0c-0.2,0-0.4,0-0.6,0.1h-0.2l-0.1,0h-0.2
                c0,0-0.1-0.1-0.1-0.1c0,0,0,0-0.1,0l-0.1,0h-0.2l0,0l-0.1,0l-0.2,0l0,0l-0.2,0h-0.2l-0.1,0l0,0l-0.5,0l-0.2,0l0,0l-0.2,0v0l0,0
                l-0.1,0l0,0h-0.2l-0.1,0l0,0h-0.1c-0.1,0-0.2,0-0.2,0c-0.1,0-0.1,0-0.2,0c0,0,0,0-0.1,0c0,0,0,0-0.1,0c0,0-0.1,0-0.1,0c0,0,0,0,0,0
                l-0.2,0l-0.1,0l-0.1,0l-0.1,0l0,0l-0.1,0l-0.1,0l-0.1-0.1l-0.1,0h-0.5l0,0h-0.2l-0.1,0l-0.1,0v0l-0.1,0l0,0H15l0,0h-0.5l-0.1,0h-0.1
                l-0.1,0l-0.2,0l0,0c0,0,0,0-0.1,0c-0.1,0-0.2-0.1-0.2-0.1l-0.1,0c-0.2,0-0.3,0-0.4,0h-0.3l0,0h-0.5l-0.1,0h-0.4l-0.1,0h-0.2l0,0
                l-0.1,0l-0.1,0l-0.3,0l-0.1,0l0,0l-0.2,0l-0.1,0l-0.1-0.1l-0.1,0.1l-0.2,0l0,0l-0.2,0c0,0-0.1,0-0.1,0c0,0,0,0,0,0l-0.1,0.1l-0.1,0
                l-0.2,0l0,0l-0.1,0l-0.1,0l0,0l-0.1,0l-0.1,0l0,0H8.8l0,0l-0.1,0H8.4l0,0l-0.1,0H7.9l-0.1,0c0,0,0,0-0.1,0c0,0,0,0-0.1,0
                c0,0-0.1,0-0.1,0c-0.1,0-0.1,0-0.2,0c0,0,0,0-0.1,0H7.1l0,0l-0.2,0c-0.1,0-0.1,0-0.1,0s-0.1,0-0.1,0H6.4c-0.1,0-0.2,0-0.3,0
                c0,0-0.1,0-0.1,0l0,0H5.8l0,0H5.8l0,0l-0.1,0H5.4l0,0l-0.2,0l0,0l-0.1,0l-0.1,0c-0.1,0-0.1,0.1-0.1,0.1l-0.1,0l0,0H4.5l0,0l-0.1,0
                c-0.1,0-0.3,0-0.4,0l-0.2,0c-0.1,0-0.2,0.1-0.3,0.1c0,0,0,0-0.1,0c-0.1,0-0.2,0-0.3,0c-0.1,0-0.1,0-0.1,0l-0.2,0l-0.1,0.1H2.2
                L2,36.6l-0.2,0l0,0H1.6l0,0H1.2l0,0l-0.2,0H0.7l-0.1,0l-0.2,0c0,0-0.1,0-0.2,0c0-0.1-0.1-0.1-0.1-0.1l-0.1-0.1h0L0,36.2h0l0-0.1V36
                l0-0.1c0-0.2,0-0.3-0.1-0.5l0-0.2l0,0v-0.1l0,0l0-0.1v-0.1l0,0c0-0.1,0-0.3,0-0.4c0-0.1,0-0.2,0-0.3l0-0.1l0-0.2l0,0v-0.1l0-0.2
                c0-0.1,0-0.1,0-0.2v-0.2l0,0v-0.2l0,0v-0.2l0-0.1l0,0l0-0.1l0-0.1l0,0l0,0l0-0.2l0,0l0-0.1l0-0.2l0-0.2l0,0l0-0.1v-0.5
                c0,0,0,0,0-0.1c0-0.2,0-0.4,0-0.5l0-0.4l0-0.1l0,0l0-0.2c0-0.2,0-0.5,0-0.7l0-0.1v-0.1l0-0.1l0-0.1l0,0v-0.3l0,0v-0.2l0,0v-0.2l0,0
                c0-0.1-0.1-0.2,0-0.3c0-0.1,0-0.3,0-0.4V27c0-0.1,0.1-0.3,0-0.5l0-0.1l0-0.3l0-0.1l0-0.3l0-0.1c0-0.1,0.1-0.2,0-0.3
                c-0.1-0.3-0.1-0.7,0-1c0-0.1,0-0.2,0-0.3v-0.3l0-0.1l0-0.1l0-0.2l0,0v-0.1c0-0.1,0-0.3,0-0.3c0-0.1,0-0.3,0-0.4L0,22.6l0-0.1v-0.4
                l0,0l0.1-0.4v-0.3l0,0l0-0.2l0,0l0-0.1v-0.3l0,0l0-0.3l0,0v-0.3l0,0v-0.2c0-0.1,0.1-0.2,0-0.3l0,0v-0.1l0,0l0-0.1l0-0.2l0,0v-0.2
                l0-0.1l0,0c0-0.1,0-0.2,0-0.2l0,0v-0.2l0-0.1c0-0.2,0-0.5,0-0.7l0,0l0-0.2l0,0c0-0.1,0-0.5,0-0.5v-0.4l0-0.1v-0.2l0,0v-0.4l0,0v-0.1
                l0-0.1v-0.3l0,0V15l0,0v-0.1l0,0l0-0.2c0-0.1,0-0.3,0-0.4l0-0.3l0-0.1l0,0v-0.3l0,0l0-0.1l0-0.2l0,0v-0.3c0-0.1,0.1-0.2,0-0.3l0-0.1
                l0-0.1l0,0v-0.1l0,0c0-0.1,0.1-0.1,0-0.2l0-0.1v-0.2c0-0.2,0-0.4,0-0.5L0,11c0.1-0.1,0-0.4,0-0.6v-0.2L0,10l0-0.4l0-0.1l0,0l0-0.2
                V9.2l0-0.2c0,0,0-0.1,0-0.1l0-0.1V8.4l0-0.1l0,0V8.2l0,0C0,8.1,0,8,0,7.9l0-0.1l0,0l0-0.2l0-0.1l0,0V7.3l0-0.1V7l0,0l0-0.1
                c0-0.1-0.1-0.2,0-0.3l0,0l0-0.2c-0.1-0.2,0-0.4,0-0.5l0-0.2c0-0.1,0-0.3,0-0.4l0-0.2L0,5c0-0.1,0-0.1,0-0.2l0-0.1c0-0.1,0-0.3,0-0.5
                L0,4.1V4l0,0V3.8l0-0.1c0-0.1,0-0.1,0-0.2l0,0l0-0.1l0-0.1l0,0l0,0c0-0.1,0-0.2,0-0.3l0,0c0-0.1,0-0.3,0-0.4c0-0.1,0-0.3,0-0.4
                l0-0.1l0,0l0-0.1l0,0c0-0.1,0-0.2,0-0.2l0-0.1c0-0.1-0.1-0.2,0-0.3c0-0.1-0.1-0.1,0-0.2l0-0.1V0.9c0.1-0.2,0-0.4,0.2-0.4
                c0,0,0.1,0,0.1,0c0,0,0.1,0,0.1,0c0,0,0,0,0.1,0c0,0,0,0,0,0l0.2-0.1l0.1,0h0.4l0.1,0h0.4c0,0,0.1,0.1,0.2,0.1c0,0,0,0,0.1,0l0.1,0
                l0.1,0c0.1,0,0.3,0,0.5,0c0.2,0,0.3,0,0.4,0l0.1,0l0,0l0.2,0h0.2c0,0,0.1-0.1,0.1-0.1c0,0,0,0,0,0l0,0l0.1,0c0,0,0.2,0,0.3,0
                c0.1,0,0.1,0,0.1,0l0,0l0.1,0l0,0l0.1,0l0.1,0l0.1,0l0.1,0c0,0,0,0,0,0c0.1,0,0.2,0,0.2,0l0.1,0l0.2,0.1h0.2c0.1,0,0.3,0,0.4,0h0.1
                l0.1,0h0.2l0,0l0.1,0l0.2,0.1h0.2l0.1,0l0.1,0h0.2l0,0l0.2,0.1h0.7l0,0h0.2l0,0l0,0l0.1,0l0.1,0l0.1,0h0.8l0,0H10l0.1,0.1h0.2l0.2,0
                l0.1-0.1l0.1,0l0,0l0,0h0.2l0,0l0.2,0l0.1,0l0.1,0l0.1,0l0,0h0.4l0,0h0.1l0,0l0.1,0l0,0h0.3c0,0,0,0,0.1,0c0,0.1,0.1,0.1,0.2,0.1
                h0.2c0.1,0,0.2,0,0.3,0h0.6l0.1,0.1h0.5l0,0h0.3l0.1,0l0.1,0h0.4l0,0H16l0.1,0l0,0l0.2,0h0.1c0.1,0,0.2,0,0.3,0c0.1,0,0.1,0,0.2,0
                l0,0h0.7l0,0l0,0H18l0.1,0h0.3c0,0,0,0,0.1,0h0.3l0,0h0.4l0,0h0.4l0,0h0l0,0h0.2l0.1,0h0.7l0.1,0l0.1,0l0.3,0l0.1-0.1h0.3l0.1,0h0.2
                l0,0l0.1,0l0,0h0.6l0.1,0l0.1,0l0,0l0.1,0h0.2c0,0,0.1,0,0.2,0c0,0,0.1,0,0.1,0l0,0h0.1l0,0h0.3l0,0l0.1,0l0.1-0.1l0.1,0l0.1,0l0,0
                h0.1l0.1,0h0.3l0,0l0.1,0l0.1,0l0,0c0,0,0,0,0,0c0,0,0,0,0.1,0c0,0,0,0,0.1,0h0l0,0c0,0,0,0,0.1,0c0,0,0.1,0,0.1,0c0,0,0.1,0,0.1,0
                c0,0,0,0,0.1,0l0.1,0l0.1,0l0,0l0.3,0l0.2,0l0.1,0h0.2l0,0l0.1,0l0.3,0l0.4,0l0.1,0c0,0,0.2,0.1,0.3,0.1c0,0,0.1,0,0.1,0l0,0l0.1,0
                l0.2,0l0.3,0l0.2,0l0,0l0.1,0l0,0c0,0,0.1,0,0.1,0c0.2,0,0.4,0,0.5,0l0,0h0.2l0,0l0.1,0H30l0,0l0.2,0l0,0l0,0h0.3l0.1,0
                c0.1-0.1,0.1,0,0.2-0.1l0,0l0.1,0l0,0c0,0,0.1,0,0.1,0c0.1,0,0.2,0,0.2,0.1c0,0,0.3,0.1,0.4,0.1c0,0,0.1,0,0.1,0l0,0h0.6l0,0h0.2
                l0,0H33l0.1,0l0.2,0l0.1-0.1l0.1,0h0.2l0.1,0H34l0,0h0.2l0,0l0,0h0.2l0,0l0.2,0l0.2,0l0.1,0h0.2l0,0h0l0,0h0.2l0,0l0,0l0.1,0l0.2,0
                l0,0l0.1,0l0.1,0l0.1,0l0.1,0l0.1,0h0.2l0.2,0l0,0h0.3l0.1,0l0.1,0l0.1,0l0.1,0l0,0l0,0h0.3l0,0h0.7l0,0h0.2c0,0,0.1,0,0.2,0
                c0,0,0.1,0,0.1,0l0,0h0.3l0,0l0,0l0.1,0l0.1-0.1l0.1,0h0.6l0,0l0.1,0l0.1,0H41l0.2,0l0.1-0.1l0.6,0l0,0l0.2,0l0.1,0l0.1,0l0,0l0.1,0
                l0,0l0.1,0l0.1-0.1h0.1l0,0h0l0,0h0.3l0.1,0l0,0l0.3,0l0,0l0.1,0l0,0h0.2l0,0c0,0,0,0,0,0c0,0,0.1,0,0.1,0c0,0,0.1,0,0.1,0
                c0,0,0,0,0.1,0l0,0l0.1,0h0.3l0.1,0l0.1,0l0,0l0.1,0l0.1-0.1l0.1,0h0.3l0.1,0h0.3l0.1,0h0.4l0,0h0.3l0,0h0.1l0,0l0.1,0l0.1,0
                L47.1,0.3L47.1,0.3 M29.8,6L29.8,6L30,6.1l0,0.1c0.1,0,0.2,0,0.3,0.1l0,0.1h0.1l0.2,0.1l0.2,0l0,0.1l0.1,0c0.1,0.1,0.2,0.1,0.3,0.2
                c0,0.1-0.2,0.1-0.3,0.2l0,0h-0.1l-0.1,0.1l-0.2,0l-0.1,0.1l-0.2,0.1l-0.1,0.1l-0.2,0l-0.1,0.1l-0.2,0l-0.1,0.1v0l-0.1,0l0,0h-0.1
                l-0.2,0.1h-0.1l0,0l-0.2,0l-0.1,0l-0.2,0.1l-0.1,0L28.3,8h-0.1C28.2,8,28,8,27.9,8c0,0,0,0-0.1,0l0,0h0c0,0,0,0-0.1,0c0,0,0,0-0.1,0
                c0,0,0,0-0.1,0l-0.1-0.1l-0.2,0l0-0.1l-0.2,0c-0.1,0-0.3,0-0.4,0L26.3,8l-0.1-0.1h-0.1L26,7.8l-0.2,0l-0.1,0l0,0l-0.1,0l-0.2,0
                l-0.2-0.1l-0.2,0l-0.1,0l-0.2,0c-0.1,0-0.2-0.1-0.2-0.1l-0.2,0l-0.1-0.1l-0.1,0l-0.1-0.1L24,7.2l0,0c0,0,0,0,0,0
                c-0.1,0-0.2,0.1-0.2,0.1l-0.2,0c0,0.1,0,0.1-0.1,0.1c0,0.1,0,0.3,0,0.4l0,0.2l0.1,0.1l0.1,0.2l0.1,0l0,0.1l0,0l0,0.2l0.1,0l0,0.2
                l0.1,0.1l0.2,0.2v0c-0.1,0-0.2,0-0.4,0.1l-0.1,0l0,0c0,0-0.1,0-0.1,0c0,0-0.1,0-0.1,0c0,0-0.1,0-0.1,0c0,0,0,0-0.1,0l-0.1,0.1H23
                l-0.1,0l0,0h-0.4l-0.1-0.1c-0.1,0-0.3,0-0.4,0l-0.1,0.1l-0.1,0l-0.1,0l-0.1-0.1h-0.1l0,0h-0.1l0,0l0,0l-0.2,0L21.1,9H21l0,0h-0.1
                l-0.1-0.1l-0.1-0.1h-0.1l-0.1,0h-0.1l-0.1-0.1h-0.1L20,8.6l-0.2-0.1l-0.1-0.1h-0.1l-0.1-0.1l-0.1,0l0-0.1l-0.1-0.1l0-0.1L19.1,8
                l0-0.1l-0.1-0.1l0-0.1l-0.1,0l-0.1-0.1l-0.1,0v0l-0.1,0l-0.2-0.2l-0.1,0l0-0.1l0,0l0-0.1l-0.1,0V6.9l-0.2-0.1v0l-0.1,0l-0.1-0.1
                l0-0.1l0,0l0-0.1l0-0.1l-0.1-0.1V6.1L17.5,6l0-0.1l0,0l0-0.1l-0.1,0l0-0.1l-0.1-0.1V5.4l-0.1-0.1v0l-0.1,0L17,5.1c0,0,0,0-0.1-0.1
                l-0.2,0c-0.1,0-0.2,0.2-0.3,0.2c0,0.1,0,0.3,0,0.4l0,0.1l0,0.2L16.5,6l0,0.1l0.1,0.1l0,0.1l0,0v0.1l0.1,0.1l0,0.1l0.1,0.1l0,0.1
                c0,0.1,0.1,0,0.1,0.2l0.1,0L17,7l0.1,0l0,0.1l0.1,0l0,0.1l0.1,0.1l0.1,0.1l0.2,0.2l0,0.1l0.1,0.1v0.1l0.1,0L18,8.1l0,0.1l0.1,0.1
                l0.1,0l0.1,0.1l0,0l0,0.1l0.2,0.1l0.1,0.1l0.1,0l0.1,0.1h0.1l0,0H19L19,9l0.1,0l0,0.1l0.1,0l0,0.1l0.3,0.1l0.1,0l0.2,0.1l0.1,0
                l0.1,0.1l0.1,0l0.1,0l0.2,0l0,0.1l0.2,0.1l0.1,0.1H21l0.2,0.1c0,0,0,0,0,0c0,0,0,0,0.1,0h0.1h0l0.2,0l0.1,0.1h0.1l0.2,0l0,0
                c0.1,0,0.2,0,0.4,0l0,0c0.1,0,0.3,0,0.4,0l0.1,0.1l0.1,0c0,0,0,0,0,0c0,0,0.1,0,0.2,0c0,0,0.1,0,0.1,0c0,0,0,0,0.1,0l0,0
                c0,0,0.1,0,0.1,0c0,0,0.1,0,0.1,0c0,0,0.1,0,0.1,0c0.2-0.1,0.4-0.1,0.6-0.1h0.3l0.2-0.1l0-0.1h0.1c0.1,0,0.3-0.1,0.4-0.1h0l0.1-0.1
                c0-0.1,0-0.2,0-0.3l-0.1-0.2l0,0L25.2,9l0-0.1l-0.1-0.1V8.8l-0.1,0l-0.1-0.1V8.6l-0.1,0l0-0.1l-0.1-0.1v0c0.1,0,0.3,0.1,0.4,0.1h0.2
                l0,0.1l0.2,0l0.1,0.1l0.2,0l0.1,0.1l0.1,0l0.2,0l0.1,0c0.2,0.1,0.5,0.1,0.8,0.1h0.6l0,0c0.1,0,0.2,0,0.3,0l0.1,0l0.2,0l0.2-0.1
                l0.1,0l0.3,0l0.1-0.1l0.1,0l0,0l0.2,0l0-0.1l0.1,0l0,0l0.1,0l0-0.1l0.1,0l0,0l0.1,0l0.1-0.1l0.1,0L30,8.3h0.1l0.1-0.1l0.1,0l0.1,0
                l0.2,0l0-0.1L30.7,8l0.1,0l0.1,0l0.2-0.1l0,0l0.1,0l0.1-0.1h0.1l0-0.1l0.1,0l0,0h0.1l0,0h0.1l0.1,0l0.1,0l0.1-0.1l0.1,0l0-0.1h0.1
                l0-0.1l0.2-0.2c0-0.1,0-0.2,0.1-0.3l0,0l0-0.1l-0.1-0.1l0-0.1l-0.2,0l-0.1-0.1h-0.1l-0.1-0.1h-0.1l-0.1-0.1h-0.1l0,0l0,0v0h-0.2
                l-0.1,0L31,5.9l-0.1,0l-0.1-0.1l-0.1,0l-0.1-0.1l-0.1,0l0,0l-0.1-0.1l0-0.1l-0.1,0l-0.1-0.1l-0.1,0v0L30,5.1v0l-0.1,0l0-0.1
                l-0.1-0.1l-0.1-0.2l-0.1-0.1l0-0.1l-0.1,0l-0.1-0.1c-0.1,0-0.2,0-0.3,0c0,0,0,0-0.1,0L29,4.3h-0.1c0,0-0.2,0.3-0.1,0.4l0.1,0.1v0.1
                L29,4.9V5l0.1,0.1l0,0.2l0.2,0.1l0.1,0.1l0,0.1l0.1,0l0.1,0.2l0.2,0.1L29.8,6 M14.1,12l-0.2,0c-0.1,0-0.2,0-0.3,0.1l-0.1,0l0,0
                l-0.2,0l-0.1,0.1h-0.1l-0.2,0.1h-0.1l-0.1,0.1c-0.1,0-0.2,0-0.3,0l-0.1,0.1h-0.1l0,0.1l-0.1,0l0,0.1l-0.1,0l-0.1,0.1h0v0l-0.1,0.1
                l-0.1,0L11.6,13l-0.1,0c-0.1,0.1-0.1,0.2-0.2,0.3l-0.1,0l-0.1,0.1h-0.1l-0.1,0.1l-0.1,0l-0.1,0.1l0,0.1h0l-0.2,0.2l0,0.2l-0.1,0
                l0,0.1l-0.1,0l0,0.1l0,0l0,0.1h0l0,0l0,0l-0.1,0.1l0,0.1l-0.1,0.1v0.1L10,15V15l0,0l0,0.1l-0.1,0.2l0,0.1l-0.1,0.1l0,0.1l-0.1,0.1
                l0,0.1l-0.1,0.1l0,0.2c0,0.1-0.1,0.3-0.1,0.4c0,0.1,0,0.2,0,0.3l0,0v0.1l0,0l0,0.2l0,0.2l0,0l0,0.2c-0.1,0.2-0.1,0.5,0,0.7
                c0,0.1,0,0.2,0,0.3l0,0v0.1l0,0.1v0.1L9.7,19l0,0.2l0,0l0,0.2v0.2l0,0.1l0.1,0.1v0.2l0,0.1l0,0.1l0.1,0.2l0.1,0l0,0.1l0.1,0.1l0,0.1
                l0,0v0.1l0.2,0.1l0,0.1l0,0l0,0.1l0.1,0.1v0.1l0.1,0l0,0.1l0.1,0l0.1,0.1l0.1,0l0.1,0.1l0.1,0l0,0.1l0.1,0.1l0.1,0.1l0.1,0.1
                l0.2,0.1l0.1,0.2l0.2,0.1l0.2,0.2l0.2,0l0.1,0.1l0.1,0l0,0.1l0.1,0l0.2,0.1l0.1,0.1l0.1,0l0.1,0.1l0.1,0l0.2,0.1h0.1l0.1,0.1h0.1
                l0.2,0h0.2l0.1,0.1h0.2l0,0l0.1,0.1l0.1,0l0.2,0.1c0.1,0,0.3,0,0.4,0l0,0l0.1,0l0,0h0.2l0.1,0l0.2,0l0.2-0.1l0.1,0l0-0.1
                c0.1,0,0.2,0,0.3,0l0,0h0.2l0-0.1h0.1l0.1-0.1l0.1,0l0.1-0.1h0.1l0-0.1h0.1l0.2-0.2h0.1l0.1-0.1l0.1,0l0,0l0.2-0.1l0,0l0.1,0
                l0.1-0.2l0.1-0.1l0-0.1l0.1-0.1l0-0.1l0.1-0.1v0l0.1,0l0.1-0.2l0.1-0.1l0-0.1l0.1,0l0.1-0.2l0-0.2l0.2-0.1l0-0.2l0.1,0l0-0.2
                l0.1-0.2l0-0.1l0.1-0.1c0-0.1,0-0.2,0-0.2l0.1-0.1v-0.1l0.1,0l0-0.2l0.1-0.1l0-0.1l0.1-0.3l0-0.1l0.1-0.2l0-0.1c0-0.1,0-0.2,0-0.4
                l0-0.2l0,0c0-0.1-0.1-0.1,0-0.2c0,0,0.1-0.1,0.1-0.1c0,0-0.1-0.2,0-0.2l0,0c0-0.1-0.1-0.1-0.1-0.2l0.1-0.1l0-0.1c0-0.1,0-0.2,0-0.4
                l0,0l0-0.1l0,0l0-0.1l0-0.2l0,0l0-0.1l0-0.1l-0.1-0.2l-0.1-0.1l0-0.2l-0.1-0.1v0l-0.1,0v-0.2l-0.1-0.1V15l0,0l0-0.2h0l0-0.1
                l-0.2-0.2l0-0.1l-0.1-0.1l0-0.2l0,0l0-0.1v0l-0.1,0l0-0.1L19,14l0-0.1l-0.2-0.2h0l0-0.1l-0.1-0.1l0-0.1l-0.1-0.1h0l-0.1-0.2
                l-0.1-0.1l0-0.1l-0.1,0l0-0.1l-0.1,0l0-0.1H18v0l-0.2-0.1l0-0.1h0l0,0h-0.1l-0.1-0.1l-0.1,0l-0.1-0.1l-0.2-0.1l0,0l-0.1,0L17,12.3
                l-0.1,0l-0.2-0.1l-0.1,0l0-0.1l-0.1,0c0,0,0,0-0.1,0c0,0,0,0-0.1,0c0,0,0,0-0.1,0c0,0,0,0-0.1,0L16.2,12l-0.1,0l0,0l-0.3-0.1h0
                c0,0-0.1,0-0.1,0c0,0-0.1,0-0.1,0c0,0,0,0,0,0c-0.1,0-0.2,0-0.2,0c-0.1,0-0.2,0-0.3,0c0,0-0.1,0-0.1,0c-0.2,0-0.3-0.1-0.5-0.1
                L14.1,12L14.1,12 M32.4,12L32.4,12l-0.2,0.1h-0.1l-0.2,0.1h-0.1l-0.1,0h-0.1c-0.1,0-0.2,0.2-0.3,0.2l-0.2,0.1l0,0l-0.1,0L31,12.6
                l-0.1,0l0,0h0l-0.1,0l-0.1,0v0l-0.1,0.1l-0.1,0h-0.1l0,0.1l-0.1,0.1l0,0.1l-0.1,0.1v0l-0.1,0L30,13.5h-0.1l-0.1,0.1l0,0.1l-0.1,0
                l0,0.1h0v0.1L29.6,14l0,0.1l-0.1,0v0.1l-0.1,0l0,0.1l0,0l0,0.2l0,0.1v0.1l-0.2,0.1l0,0.2l0,0v0.1L29,15.2l0,0.1l-0.1,0v0l-0.1,0.1
                l0,0.1c-0.1,0.2-0.1,0.5-0.2,0.7c0,0.1,0,0.2,0,0.3l0,0.2l0,0.1l0,0.1l0,0.2l0,0v0.2l0,0l0,0.1l0,0.1l0,0c0,0.1,0,0.3,0,0.4l0,0.2
                l0,0.1l0,0.3l0,0.1l0,0.1l0,0.2l0.1,0.1c0,0.1-0.1,0.2,0,0.3l0.1,0.1l0,0.1l0,0l0.1,0.1v0.3l0.1,0.1l0,0.1l0,0l0,0.1l0,0l0,0.1
                l0.1,0.1v0.2l0.1,0l0,0.1l0.1,0v0.1l0.1,0.1V21l0,0c0.1,0.2,0.1,0.2,0.3,0.3l0,0.1h0.1l0,0.1l0,0v0.1l0.1,0.1v0.1l0.1,0.1v0.1L30,22
                h0.1l0.1,0.1h0l0.1,0.1l0.1,0l0.1,0.1h0l0,0.1l0.1,0l0,0.1l0.1,0c0.1,0.1,0.1,0.2,0.2,0.2H31l0.2,0.1h0.1l0.1,0l0.1,0
                c0.1,0,0.2,0.1,0.2,0.1l0.2,0.1l0,0.1c0.1,0,0.2,0,0.3,0l0.1,0l0,0.1l0.2,0l0,0l0,0h0.1l0,0c0.1,0,0.2,0,0.3,0c0.1,0,0.1,0,0.1,0
                c0,0,0.1,0,0.1,0h0.5c0.4,0,0.7,0,1-0.1h0.1l0.1-0.1l0.2,0l0,0h0.1l0.1-0.1h0.1l0,0h0.1l0.1-0.1h0.1l0.1-0.1l0.1,0l0,0l0.1,0
                l0.1-0.1h0.1c0.1-0.1,0.1-0.2,0.2-0.3l0.1,0l0.1-0.1l0.2,0l0.1-0.1h0l0.1-0.1c0.1-0.1,0.2-0.2,0.3-0.3v-0.1l0,0l0-0.1h0.1l0,0
                l0.1-0.1l0.1-0.2l0.2-0.2l0-0.1l0-0.2l0.1,0v-0.1l0.1-0.2l0-0.1l0.1-0.1l0-0.1l0-0.1V20l0.1-0.1c0-0.1,0-0.2,0-0.3l0-0.1
                c0-0.1,0.1-0.2,0.1-0.2l0-0.1c0-0.1,0-0.2,0.1-0.2c0-0.1,0-0.1-0.1-0.2l-0.1,0l-0.1,0l0,0l-0.3,0c-0.1,0-0.1,0-0.2,0
                c0,0-0.1,0-0.1,0h-0.1c0,0-0.1,0-0.1,0c0,0-0.1,0-0.1,0H37c0,0-0.1,0-0.1,0c-0.1,0-0.3,0-0.4,0c-0.1,0-0.2,0-0.3,0c0,0-0.1,0-0.1,0
                c-0.1,0-0.2,0-0.2,0l-0.2,0l-0.1,0c0,0-0.2,0.3-0.1,0.4l0,0l0,0.3h0l0,0.1v0.2L35.4,20l0,0.2l-0.1,0v0l-0.1,0.1l0,0.1l-0.1,0.1
                L35,20.6l-0.1,0.1l0,0h-0.1l-0.1,0.1h-0.1l0,0.1h-0.1l-0.1,0.1v0l-0.1,0L34.3,21l-0.1,0l0,0l-0.1,0l-0.2,0l-0.1,0.1c0,0,0,0,0,0
                c-0.1,0-0.2,0-0.2,0l-0.1,0.1c0,0,0,0-0.1,0c-0.1,0-0.2-0.1-0.2-0.1H33l0,0l-0.1,0l-0.1,0l-0.2-0.1l0-0.1l-0.1,0l0-0.1h-0.1
                l-0.1-0.1l-0.2-0.2l0,0l0-0.1l-0.1,0l-0.1-0.1l0-0.1l-0.1-0.2l0-0.2l-0.2-0.1l0-0.2v-0.2c0-0.1-0.1-0.2-0.1-0.3l0-0.1l0-0.2l0,0
                l0-0.3l-0.1-0.1c0-0.1,0-0.2,0-0.3l0,0v-0.2l0-0.1l0,0c0-0.1,0-0.2,0-0.3l0-0.1c0-0.1-0.1-0.1,0-0.2l0-0.1l0,0l0-0.1l0.1,0l0-0.1
                l0-0.3l0,0l0-0.2l0.1-0.1c0-0.1,0-0.2,0-0.3l0.1-0.1v-0.1l0.1-0.2l0,0l0-0.1l0.1-0.1l0-0.1l0,0l0.1-0.2l0.1,0l0.1-0.1h0.1l0.1-0.1
                l0.1,0l0.1-0.1l0.1,0v0l0.1,0l0.1-0.1c0,0,0,0,0,0c0,0,0.1,0,0.1,0c0,0,0.1,0,0.1,0c0,0,0.1,0,0.1,0l0.1-0.1c0,0,0.1,0,0.2,0
                c0,0,0,0,0,0c0,0,0.1,0,0.1,0c0,0,0.1,0,0.1,0l0,0l0.1,0l0.2,0l0,0l0.1,0l0,0l0.1,0l0.1,0.1l0.2,0l0.1,0.2l0.1,0l0.1,0.1l0.1,0.1
                l0.1,0.2v0.1l0.1,0v0l0.1,0v0.1l0.1,0.1l0,0.2l0.1,0l0,0.1l0,0.1l0,0.1l0,0l0.1,0.1c0.1,0,0.1,0,0.1,0h0.5l0,0h0.2l0.1,0l0,0l0.1,0
                l0.4,0l0,0l0.1,0l0,0h0.2l0.1,0l0.1,0l0.1,0c0,0,0,0,0,0c0.1,0,0.1,0,0.2,0c0.1,0,0.2,0,0.2,0c0.1,0,0.1,0,0.1,0l0.1-0.1l0-0.1
                l0-0.2l0,0v-0.1l-0.1,0v-0.1l0-0.2l-0.1,0c0-0.1,0-0.1,0-0.2v-0.2l-0.1-0.2v-0.1c0-0.1-0.1-0.2-0.2-0.3l0-0.1l0,0l0,0l-0.1,0l0-0.1
                l-0.1,0v-0.1l0,0v-0.1l0,0l-0.1-0.1l0,0v0l-0.1,0l0-0.1l-0.1-0.1l0-0.1l-0.1,0l0-0.1L37,13.1h-0.1l0-0.1l-0.1,0c0,0,0-0.1-0.1-0.1
                l0-0.1l-0.1-0.1l-0.2-0.2l-0.2,0l0-0.1l-0.1,0l0,0h-0.1l-0.2-0.1h-0.1l0-0.1l-0.1,0l-0.1-0.1h0l0,0l-0.1,0l0-0.1l-0.1,0l0,0H35
                l0-0.1l-0.1,0l-0.1,0l-0.1,0c-0.2-0.1-0.5-0.1-0.9-0.1c-0.2,0-0.3,0-0.4,0l-0.1,0H33l0,0l-0.2,0h-0.1l0,0.1L32.4,12L32.4,12
                 M25,12.2C25,12.2,24.9,12.2,25,12.2L25,12.2l-0.2,0l0,0l-0.1,0l-0.1,0l0,0c0,0-0.1,0-0.2,0c-0.1,0-0.1,0-0.1,0c0,0,0,0,0,0h-0.2
                l0,0l-0.1,0h-0.3c-0.1,0-0.2,0-0.3,0l-0.1,0l-0.1,0l0,0.1c0,0.1,0,0.2,0,0.3l0,0l0,0.1v0.3l0,0l0,0.1v0.3l0,0l0,0.2
                c0,0.2,0,0.5,0,0.6v0.2l0,0v0.3l-0.1,0.1l0,0.2l0,0V15l0.1,0.1v0.2l0,0l0,0.2l0,0.1l0,0.1c0,0.1,0,0.3,0,0.3l0,0l-0.1,0.2V17
                l0.1,0.1v0.6c0,0.1,0,0.3,0,0.5l0,0.1l0,0.2l0,0l0,0.4L23,19l0,0.1l0,0l0,0.1c0,0.1,0.1,0.2,0,0.3l0,0v0.4l0,0l0,0.1l0,0
                c0,0.1,0,0.3,0,0.3l0,0l0,0.2l0,0.1v0.4l0,0l0,0.2l0,0.1c0,0.1-0.1,0.3-0.1,0.3l0.1,0.1V22l-0.1,0.1v0.2l0,0c0,0.1,0,0.2,0,0.3v0.3
                l0,0.2v0.1c0,0,0.1,0,0.2,0c0,0,0.1,0,0.1,0l0.1,0c0.1,0,0.3,0.1,0.4,0.1c0.1,0,0.2,0,0.4,0c0.1,0,0.2,0,0.4,0c0.1,0,0.3,0,0.4,0
                l0.1,0l0.1,0c0,0,0.1,0,0.2,0c0,0,0.1,0,0.1,0c0.1,0,0.1,0,0.2,0c0.1,0,0.1,0,0.2,0c0.2,0,0.2-0.1,0.3-0.1l-0.1-0.2v-0.2l0,0
                c0-0.1,0.1-0.3,0-0.3c0-0.1,0-0.3,0-0.4c0,0-0.1-0.3,0-0.4l0,0v-0.2l0.1-0.1c0-0.1,0-0.2-0.1-0.2l0.1-0.1c0-0.1-0.1-0.2-0.1-0.4l0,0
                l0-0.1v-0.4l0,0v-0.2l0-0.1l0-0.2v-0.1l0.1,0c0-0.1,0-0.4-0.1-0.5v-0.2c0-0.2,0-0.5,0-0.6c0-0.1,0-0.3,0-0.4v-0.3l0,0v-0.5l0-0.1
                l0,0v-0.2c0-0.1,0.1-0.1,0.1-0.2l0,0c0-0.1,0.1-0.2,0-0.2l-0.1-0.1c0-0.1,0-0.2,0-0.3c0,0-0.1-0.2,0-0.2l0,0v-0.6l0-0.1l0,0v-0.1
                l0.1-0.1c0-0.1-0.1-0.1-0.1-0.2l0.1-0.1l-0.1,0v-0.3l0,0v-0.1l0-0.1c0-0.1,0-0.3,0-0.4l0-0.1l0,0v-0.4c0,0,0,0,0-0.1l0-0.2v-0.1
                c-0.2,0-0.3-0.1-0.5-0.1h-0.1C25.1,12.2,25.1,12.2,25,12.2 M30.4,26.9L30.4,26.9L30.4,26.9l-0.2,0L30.1,27h-0.1v0l0,0l0,0l-0.1,0
                l0,0.1l0,0l0,0.1h-0.1l-0.1,0.1l-0.2,0.1l-0.2,0l-0.1,0.1h0L29,27.6l0,0l0,0l-0.1,0.1l0,0h-0.1l-0.2,0.1h-0.1l-0.1,0.1l-0.1,0
                l-0.1,0.1L28,28L28,28h-0.1l-0.1,0.1h-0.1l0,0l-0.1,0l-0.1,0.1c-0.1,0-0.2,0-0.3,0l0,0.1l-0.1,0l-0.1,0.1l-0.1,0l0,0.1h-0.2
                l-0.1,0.1h-0.2l-0.1,0.1h-0.1l-0.2,0.1v0h-0.1l-0.1,0.1l-0.1,0l-0.1,0.1c0,0-0.1,0-0.2,0h-0.1c0,0-0.1,0-0.1,0l-0.1,0l0,0l-0.1,0
                l-0.1,0.1l-0.2,0l-0.2,0l-0.2,0l-0.1,0.1c-0.1,0-0.2,0-0.3,0l-0.1,0.1c-0.1,0-0.2,0-0.3,0l-0.2,0c-0.1,0.1-0.3,0.1-0.5,0.1
                c-0.1,0-0.2,0-0.3,0h-0.4v0l-0.1,0l-0.2,0c-0.2,0-0.3,0-0.5,0l-0.1-0.1h-0.1l-0.1,0l-0.3,0l-0.2-0.1h-0.1L20.6,29h-0.1
                c-0.1,0-0.2-0.1-0.3-0.1H20l-0.1-0.1c-0.1,0-0.2,0-0.3,0l-0.1-0.1h-0.1l-0.1-0.1h-0.1L19,28.5l-0.1,0l0,0h-0.1l-0.1-0.1h-0.2
                l-0.1-0.1l-0.1,0l0-0.1l-0.2-0.1h-0.1L18.1,28h-0.1l0-0.1l-0.1-0.1l0-0.1h0l0,0l0,0l-0.1-0.1v0l-0.1,0l0-0.1l-0.1,0l0,0l-0.1,0
                l-0.1-0.2l0-0.1l-0.1,0l-0.1-0.1L17,27.1v0l-0.1,0v0c-0.1-0.1-0.1-0.2-0.2-0.3h-0.1l0-0.1h-0.2l-0.2,0v0h0l0,0l0,0.1L16,26.9l0,0.1
                l0.1,0.1v0.1l0.2,0.2h0l0,0.1l0.1,0.1v0.1l0.2,0.2h0.1l0,0.1l0.1,0l0.2,0.2l0.1,0l0,0.1l0.1,0v0.1l0.1,0.1l0.1,0.1h0.1l0.1,0.1
                l0.2,0l0.1,0.2l0,0h0.1l0,0.1h0l0,0.1l0.2,0l0,0l0.1,0.1h0.1l0.1,0.1l0.1,0l0,0.1l0.2,0l0.1,0.1H19l0,0c0,0,0.1,0,0.1,0
                c0,0,0,0,0.1,0h0.1l0.1,0.1h0.1l0,0l0.1,0l0,0.1l0.1,0l0,0.1l0.2,0v0l0.1,0l0.1,0.1l0.1,0l0.1,0l0.2,0l0,0h0.1l0.1,0.1h0.1l0.1,0
                l0.2,0c0.1,0,0.3,0,0.4,0h0.2l0,0l0.1,0h0.2l0,0l0.1,0h0.3l0,0v0c0,0,0,0,0.1,0c0,0,0.1,0,0.1,0c0,0,0.1,0,0.1,0h0l0,0c0,0,0,0,0,0
                c0,0,0.1,0,0.1-0.1c0,0,0.1-0.1,0.1-0.1l0,0c0.1,0,0.1,0,0.2,0h0.1h0c0,0,0,0,0,0c0,0,0,0,0.1,0c0,0,0,0,0.1,0l0.1,0l0.1-0.1l0.2,0
                l0,0H24l0,0l0.1,0l0.1,0l0.3,0l0,0h0.2l0.1-0.1h0.1l0,0l0.1,0l0.2,0l0.1-0.1c0,0,0,0,0.1,0c0,0,0,0,0.1,0c0,0,0,0,0.1,0
                c0,0,0,0,0.1,0l0,0h0.1l0-0.1l0.2,0l0.1-0.1h0.1c0.1-0.1,0.3-0.1,0.4-0.1l0.2,0v0l0.2,0l0-0.1l0.1,0l0.1-0.1c0,0,0,0,0.1,0
                c0,0,0,0,0.1,0c0,0,0.1,0,0.1,0l0,0h0.1l0.1-0.1l0.1,0l0,0H28l0.2-0.2h0.1l0.1,0l0.1,0v0l0.1,0l0.1,0h0l0-0.1l0.1-0.1l0.1,0l0.1,0
                l0,0l0.1-0.1l0.2,0l0,0l0.1,0l0.1-0.1h0.1l0.1-0.1l0.2-0.1v0H30l0.1-0.1l0.1,0l0.1-0.1h0.1l0,0h0l0.1-0.1h0.1l0.1-0.1h0.1l0.2-0.2h0
                l0.1-0.1l0.1,0l0.1-0.1h0.1l0.1-0.1l0.2,0l0.1-0.1l0.1-0.1l0.1,0.1l0,0.1l0.2,0.2v0.1h0l0,0.1l0.1,0l0.1,0.1l0.1,0v0.1h0l0,0.1
                l0.2,0.2l0.1,0l0,0.1l0.3,0.1l0.2-0.1h0l0-0.1l0.1-0.1l0-0.3l0-0.1l-0.1-0.1v0l-0.1,0l0,0v-0.1l-0.1,0L33,27.4l-0.1,0l-0.1-0.1
                l-0.1,0l0-0.2L32.6,27l0-0.1l-0.1-0.1l0-0.2l-0.1,0l0-0.1l0,0v0l0,0v-0.1l0-0.1v0h0l-0.1-0.1l0-0.2l0,0l-0.1-0.1l0-0.2L32,25.3v-0.2
                l0-0.3l-0.2-0.2l-0.3,0l-0.2,0.2v0.1c-0.1,0.2-0.1,0.3,0,0.5v0.1l0,0.1v0.2l0.1,0.1l0,0.1l0,0l0,0.2c0,0.1-0.1,0.1-0.2,0.2l-0.2,0
                h-0.1l-0.1,0.1l-0.2,0.2l-0.1,0l0,0.1L30.4,26.9L30.4,26.9 M14.6,14.2l0.1,0l0.2,0l0.1,0.1h0.2c0.1,0,0.3,0,0.4,0.1l0.2,0.1h0.1
                l0.1,0.1h0.1l0.1,0.1l0.1,0.1l0.2,0l0,0.1l0.1,0.1c0,0.1,0.1,0.2,0.1,0.2l0.1,0l0,0.2l0.2,0.2v0l0.1,0.2v0.1l0.1,0.1l0,0.2l0.1,0.1
                l0,0.2l0.1,0c0,0.1-0.1,0.2,0,0.3l0.1,0.1l0,0.2l0.1,0.1v0.1l0,0.1c0,0.1,0,0.2,0,0.3l0,0.1l0,0.1l0,0.3l-0.1,0.1c0,0.1,0,0.2,0,0.3
                l0,0.1l0,0l0,0l0,0.1l0,0.1V19L17,19.1l0,0.1l-0.1,0.2l0,0.1l0,0l0,0.1l0,0v0.1l-0.1,0.1l-0.1,0.2l-0.1,0.1l0,0.1l-0.2,0.2v0l-0.1,0
                l-0.1,0.1h0l-0.1,0.1v0L16,20.8l-0.1,0l-0.1,0.1h-0.1l0,0l-0.1,0l0,0l-0.1,0L15,21h-0.1l0,0l-0.4,0l0-0.1h-0.2l-0.1-0.1H14l-0.2-0.1
                l0-0.1l-0.1,0l0,0l-0.1,0l-0.1-0.1l-0.1-0.1l0-0.1l-0.2-0.1c-0.1-0.1,0-0.2,0-0.2l-0.1-0.2l0-0.2l-0.1-0.1l0-0.1l0,0l-0.1-0.2
                l-0.1-0.1v-0.1l-0.1-0.2l0-0.2l-0.1-0.1v-0.2l0-0.2l-0.1-0.1c0-0.3,0-0.6,0-0.8c0-0.1,0.1-0.3,0.1-0.5l0-0.1l0-0.1l0-0.2l0.1-0.1
                l0-0.1l0.1-0.1l0-0.2l0.1,0V16l0.1-0.1v-0.1l0.1-0.1l0-0.1l0.1,0v0l0.1-0.3c0-0.1,0.1-0.1,0.1-0.1l0-0.1c0.1-0.1,0.1-0.1,0.2-0.2
                c0.2-0.1,0.3-0.3,0.5-0.5H14l0.1-0.1l0.2-0.1L14.6,14.2L14.6,14.2"></path>
            </svg>